<svg width="24" height="24" classname="next-page" viewBox="0 0 24 24" fill="none" xmlns="http://www.w3.org/2000/svg">
<path fill-rule="evenodd" clip-rule="evenodd" d="M18.9332 11.6672C18.8895 11.5621 18.8282 11.4657 18.7407 11.3869L12.6143 5.25618C12.2729 4.91461 11.7216 4.91461 11.3802 5.25618C11.0389 5.59775 11.0389 6.14951 11.3802 6.49108L16.01 11.1242L5.8752 11.1242C5.39384 11.1242 5 11.5183 5 12C5 12.4817 5.39384 12.8758 5.8752 12.8758L16.0188 12.8758L11.389 17.5089C11.0477 17.8505 11.0477 18.4023 11.389 18.7438C11.7303 19.0854 12.2817 19.0854 12.623 18.7438L18.7494 12.6131C18.8282 12.5342 18.8895 12.4379 18.942 12.3328C19.0207 12.1226 19.0207 11.8774 18.9332 11.6672Z" fill="#697488"/>
</svg>
